HIERARCHY
ROOT SpineBase
{
  OFFSET 0.000000 0.000000 0.000000
  CHANNELS 6 Xposition Yposition Zposition Zrotation Xrotation Yrotation
  JOINT SpineMid
  {
    OFFSET 0.000000 31.695117 0.000000
    CHANNELS 3 Zrotation Xrotation Yrotation
    JOINT SpineShoulder
    {
      OFFSET -0.235845 23.496523 -1.182234
      CHANNELS 3 Zrotation Xrotation Yrotation
      JOINT Neck
      {
        OFFSET -0.103448 7.796731 -0.865924
        CHANNELS 3 Zrotation Xrotation Yrotation
        JOINT Head
        {
          OFFSET 2.153372 13.247413 4.867378
          CHANNELS 3 Zrotation Xrotation Yrotation
          End Site
          {
            OFFSET 0 0 0
          }
        }
      }
      JOINT ShoulderLeft
      {
        OFFSET -11.226507 -3.471916 -11.864111
        CHANNELS 3 Zrotation Xrotation Yrotation
        JOINT ElbowLeft
        {
          OFFSET -9.120363 -25.459650 -8.997848
          CHANNELS 3 Zrotation Xrotation Yrotation
          JOINT WristLeft
          {
            OFFSET -1.402738 -21.350145 -10.251261
            CHANNELS 3 Zrotation Xrotation Yrotation
            JOINT HandLeft
            {
              OFFSET 0.153827 -7.893878 -3.299749
              CHANNELS 3 Zrotation Xrotation Yrotation
              JOINT HandTipLeft
              {
                OFFSET -0.157347 -7.444277 -2.170570
                CHANNELS 3 Zrotation Xrotation Yrotation
                End Site
                {
                  OFFSET 0 0 0
                }
              }
              JOINT ThumbLeft
              {
                OFFSET -2.507072 -0.794028 -2.325974
                CHANNELS 3 Zrotation Xrotation Yrotation
                End Site
                {
                  OFFSET 0 0 0
                }
              }
            }
          }
        }
      }
      JOINT ShoulderRight
      {
        OFFSET 12.846798 -3.708834 11.203629
        CHANNELS 3 Zrotation Xrotation Yrotation
        JOINT ElbowRight
        {
          OFFSET 3.930654 -26.904680 4.963748
          CHANNELS 3 Zrotation Xrotation Yrotation
          JOINT WristRight
          {
            OFFSET 3.662690 -27.629062 0.271800
            CHANNELS 3 Zrotation Xrotation Yrotation
            JOINT HandRight
            {
              OFFSET 0.918721 -5.941625 -0.420803
              CHANNELS 3 Zrotation Xrotation Yrotation
              JOINT HandTipRight
              {
                OFFSET 1.768166 -5.144530 -1.058987
                CHANNELS 3 Zrotation Xrotation Yrotation
                End Site
                {
                  OFFSET 0 0 0
                }
              }
              JOINT ThumbRight
              {
                OFFSET -0.683985 -1.047136 -1.742660
                CHANNELS 3 Zrotation Xrotation Yrotation
                End Site
                {
                  OFFSET 0 0 0
                }
              }
            }
          }
        }
      }
    }
  }
  JOINT HipLeft
  {
    OFFSET -5.322789 1.695272 -7.279077
    CHANNELS 3 Zrotation Xrotation Yrotation
    JOINT KneeLeft
    {
      OFFSET -4.378023 -36.182272 -4.698487
      CHANNELS 3 Zrotation Xrotation Yrotation
      JOINT AnkleLeft
      {
        OFFSET -2.842377 -38.184622 5.560057
        CHANNELS 3 Zrotation Xrotation Yrotation
        JOINT FootLeft
        {
          OFFSET 2.686915 -7.933948 -5.536482
          CHANNELS 3 Zrotation Xrotation Yrotation
          End Site
          {
            OFFSET 0 0 0
          }
        }
      }
    }
  }
  JOINT HipRight
  {
    OFFSET 6.027492 0.326511 0.380348
    CHANNELS 3 Zrotation Xrotation Yrotation
    JOINT KneeRight
    {
      OFFSET 1.911437 -38.255743 2.340629
      CHANNELS 3 Zrotation Xrotation Yrotation
      JOINT AnkleRight
      {
        OFFSET -5.977302 -37.280168 7.688989
        CHANNELS 3 Zrotation Xrotation Yrotation
        JOINT FootRight
        {
          OFFSET 2.791281 -8.123173 -4.422795
          CHANNELS 3 Zrotation Xrotation Yrotation
          End Site
          {
            OFFSET 0 0 0
          }
        }
      }
    }
  }
}
MOTION
Frames: 5
Frame Time: 0.033333
-33.640034 88.857043 336.373089 3.552623 4.659851 -41.300244 -1.354428 0.185833 41.280207 -0.442852 1.523945 0.099780 1.676816 -4.071758 -2.031740 0.000000 0.000000 0.000000 37.031742 16.304631 -28.108520 95.418732 -13.129518 12.005271 22.999820 -3.944246 10.202730 -8.929641 18.180634 -2.409246 0.000000 0.000000 0.000000 0.000000 0.000000 0.000000 24.691754 35.134030 4.300107 86.205509 54.830274 -39.496617 30.894244 34.092546 -18.876600 -39.871311 -25.959578 -22.842153 0.000000 0.000000 0.000000 0.000000 0.000000 0.000000 -0.583149 -6.855855 41.263575 -0.934765 0.118019 -0.532579 -0.417440 2.690282 3.202569 0.000000 0.000000 0.000000 -3.412622 -6.301914 40.685664 1.551899 -1.582565 -0.328099 7.852552 4.299315 -1.465766 0.000000 0.000000 0.000000
-33.626542 89.650447 336.249623 3.795354 5.152630 -39.034484 -1.291682 0.021818 38.993001 -0.415983 1.411156 0.111567 2.286336 -3.401309 -2.431346 0.000000 0.000000 0.000000 41.059411 17.471006 -31.538438 97.077479 -10.589559 15.676507 37.013329 -7.260067 33.305558 -8.169403 25.928505 -20.046956 0.000000 0.000000 0.000000 0.000000 0.000000 0.000000 31.713037 39.259863 3.054356 87.730437 54.791535 -46.855429 32.891941 36.815733 -6.862133 -43.504431 -14.522130 -38.817105 0.000000 0.000000 0.000000 0.000000 0.000000 0.000000 -0.766623 -7.023648 38.894145 -1.201190 -0.279341 -0.487583 5.575642 9.296374 0.901288 0.000000 0.000000 0.000000 -3.193498 -6.807726 38.389727 1.479593 -1.472538 -0.269418 6.990067 3.978291 -1.282677 0.000000 0.000000 0.000000
-33.613421 90.166021 335.964286 3.991943 5.715732 -36.395570 -1.143716 -0.190289 36.335824 -0.387585 1.179964 0.125417 2.685443 -2.462032 -2.813592 0.000000 0.000000 0.000000 43.272861 17.226869 -32.944726 96.188849 -9.045199 14.255663 51.086085 -1.079798 78.244380 1.992372 23.316295 -36.388327 0.000000 0.000000 0.000000 0.000000 0.000000 0.000000 39.271491 41.299515 1.512106 88.536820 55.608795 -62.220774 29.039746 44.157908 10.299489 -47.021570 -15.682387 -44.026943 0.000000 0.000000 0.000000 0.000000 0.000000 0.000000 -0.814669 -7.311121 36.177008 -1.446329 -0.527780 -0.444485 12.751175 16.356869 -2.604763 0.000000 0.000000 0.000000 -2.927618 -7.535021 35.710165 1.477108 -1.263517 -0.181471 5.866553 4.171619 -0.857154 0.000000 0.000000 0.000000
-33.594454 90.454976 335.564811 4.112517 6.351021 -34.473129 -1.013750 -0.309502 34.397526 -0.396600 0.982489 0.133240 3.233081 -1.930390 -3.170079 0.000000 0.000000 0.000000 46.828180 17.586096 -35.692538 96.862928 -7.030011 17.378624 50.422332 4.301100 105.110645 8.444314 18.619102 -71.060025 0.000000 0.000000 0.000000 0.000000 0.000000 0.000000 47.440496 45.473612 -1.241198 81.815975 53.941685 -64.105547 27.420949 53.143403 21.965879 -39.158927 2.972793 -82.141747 0.000000 0.000000 0.000000 0.000000 0.000000 0.000000 -0.602805 -7.824559 34.228006 -1.655882 -0.606048 -0.421428 20.756580 21.909597 -7.460365 0.000000 0.000000 0.000000 -2.507858 -8.276244 33.770400 1.310002 -1.217638 -0.107440 4.244279 3.904497 -0.258616 0.000000 0.000000 0.000000
-33.506706 90.406071 335.114540 4.235261 6.914191 -32.094562 -0.927149 -0.332220 32.006104 -0.429312 0.773686 0.139157 3.861241 -1.599205 -3.515702 0.000000 0.000000 0.000000 49.340183 17.885738 -37.775097 97.048760 -5.368384 19.817557 47.504012 6.167017 120.703844 11.827319 17.612631 -83.436307 0.000000 0.000000 0.000000 0.000000 0.000000 0.000000 55.278256 48.818208 -4.473074 76.950391 52.285930 -67.616820 21.346286 61.182327 32.888876 3.201965 -8.816820 159.435690 0.000000 0.000000 0.000000 0.000000 0.000000 0.000000 0.070695 -8.102551 31.843597 -2.475991 -0.533375 -0.331649 27.653775 25.989626 -11.996798 0.000000 0.000000 0.000000 -2.349903 -9.091684 31.345791 1.221733 -1.247971 -0.015569 2.789982 4.044954 0.369793 0.000000 0.000000 0.000000
